<svg width="50" height="50" viewBox="0 0 50 50" fill="none" xmlns="http://www.w3.org/2000/svg">
<g id="mdi:briefcase-edit-outline">
<path id="Vector" d="M43.8334 25.2708C44.125 25.2708 44.3959 25.3958 44.625 25.625L47.2917 28.2916C47.75 28.7291 47.75 29.4583 47.2917 29.8958L45.2084 31.9791L40.9375 27.7083L43.0208 25.625C43.25 25.3958 43.5417 25.2708 43.8334 25.2708ZM39.7292 28.9166L44 33.1875L31.375 45.8333H27.0834V41.5416L39.7292 28.9166ZM20.8334 4.16663H29.1667C30.2718 4.16663 31.3316 4.60561 32.113 5.38701C32.8944 6.16842 33.3333 7.22822 33.3333 8.33329V12.5H41.6667C42.7717 12.5 43.8316 12.9389 44.613 13.7203C45.3944 14.5017 45.8333 15.5616 45.8333 16.6666L41.6667 20.8333V16.6666H8.33335V39.5833H22.9167V43.75H8.33335C7.22828 43.75 6.16848 43.311 5.38708 42.5296C4.60567 41.7482 4.16669 40.6884 4.16669 39.5833V16.6666C4.16669 15.5616 4.60567 14.5017 5.38708 13.7203C6.16848 12.9389 7.22828 12.5 8.33335 12.5H16.6667V8.33329C16.6667 7.22822 17.1057 6.16842 17.8871 5.38701C18.6685 4.60561 19.7283 4.16663 20.8334 4.16663ZM29.1667 12.5V8.33329H20.8334V12.5H29.1667Z" fill="#FDFDFD"/>
</g>
</svg>
