<svg width="50" height="50" viewBox="0 0 50 50" fill="none" xmlns="http://www.w3.org/2000/svg">
<g id="material-symbols:computer-outline">
<path id="Vector" d="M4.16671 43.75C3.57644 43.75 3.0813 43.55 2.6813 43.15C2.2813 42.75 2.08199 42.2556 2.08338 41.6667C2.08338 41.0764 2.28338 40.5813 2.68338 40.1813C3.08338 39.7813 3.57783 39.5819 4.16671 39.5833H45.8334C46.4237 39.5833 46.9188 39.7833 47.3188 40.1833C47.7188 40.5833 47.9181 41.0778 47.9167 41.6667C47.9167 42.2569 47.7167 42.7521 47.3167 43.1521C46.9167 43.5521 46.4223 43.7514 45.8334 43.75H4.16671ZM8.33338 37.5C7.18755 37.5 6.2063 37.0917 5.38963 36.275C4.57296 35.4583 4.16533 34.4778 4.16671 33.3333V10.4167C4.16671 9.27084 4.57505 8.28959 5.39172 7.47292C6.20838 6.65625 7.18894 6.24861 8.33338 6.25H41.6667C42.8126 6.25 43.7938 6.65834 44.6105 7.475C45.4271 8.29167 45.8348 9.27223 45.8334 10.4167V33.3333C45.8334 34.4792 45.4251 35.4604 44.6084 36.2771C43.7917 37.0938 42.8112 37.5014 41.6667 37.5H8.33338ZM8.33338 33.3333H41.6667V10.4167H8.33338V33.3333Z" fill="#FDFDFD"/>
</g>
</svg>
