<svg width="40" height="40" viewBox="0 0 40 40" fill="none" xmlns="http://www.w3.org/2000/svg">
<g id="Property 1=Default">
<path id="Vector" d="M13.275 10.3367C12.9652 10.2916 12.6494 10.3539 12.38 10.5133H12.3567C11.7317 10.88 11.1683 11.3417 10.6883 11.885C10.2883 12.3467 10.0717 12.8133 10.015 13.2633C9.98166 13.53 10.005 13.8 10.0833 14.055L10.1133 14.0717C10.5633 15.3933 11.15 16.665 11.8667 17.8617C12.7907 19.5425 13.9279 21.097 15.25 22.4867L15.29 22.5433L15.3533 22.59L15.3917 22.635L15.4383 22.675C16.8329 24.0011 18.391 25.1436 20.075 26.075C22 27.1233 23.1683 27.6183 23.87 27.825V27.835C24.075 27.8983 24.2617 27.9267 24.45 27.9267C25.0476 27.8825 25.6132 27.6396 26.0567 27.2367C26.5983 26.7567 27.0567 26.1917 27.4133 25.5633V25.5517C27.7483 24.9183 27.635 24.3217 27.1517 23.9167C26.1808 23.0684 25.131 22.315 24.0167 21.6667C23.27 21.2617 22.5117 21.5067 22.205 21.9167L21.55 22.7433C21.2133 23.1533 20.6033 23.0967 20.6033 23.0967L20.5867 23.1067C16.035 21.945 14.82 17.3367 14.82 17.3367C14.82 17.3367 14.7633 16.71 15.185 16.39L16.005 15.73C16.3983 15.41 16.6717 14.6533 16.25 13.9067C15.606 12.7913 14.8541 11.7418 14.005 10.7733C13.8198 10.5454 13.5601 10.3902 13.2717 10.335L13.275 10.3367ZM20.9667 8.33333C20.7456 8.33333 20.5337 8.42113 20.3774 8.57741C20.2211 8.73369 20.1333 8.94565 20.1333 9.16666C20.1333 9.38768 20.2211 9.59964 20.3774 9.75592C20.5337 9.9122 20.7456 9.99999 20.9667 9.99999C23.0733 9.99999 24.8233 10.6883 26.2083 12.0083C26.92 12.73 27.475 13.585 27.8383 14.5217C28.2033 15.46 28.37 16.4617 28.3267 17.465C28.3174 17.686 28.3963 17.9017 28.546 18.0645C28.6957 18.2273 28.904 18.324 29.125 18.3333C29.346 18.3426 29.5617 18.2637 29.7245 18.114C29.8873 17.9643 29.984 17.756 29.9933 17.535C30.045 16.3008 29.8402 15.0693 29.3917 13.9183C28.9412 12.7619 28.2582 11.7102 27.385 10.8283L27.3683 10.8117C25.65 9.16999 23.4767 8.33333 20.9667 8.33333Z" fill="#FDFDFD"/>
<path id="Vector_2" d="M20.9083 11.0733C20.6873 11.0733 20.4754 11.1611 20.3191 11.3174C20.1628 11.4737 20.075 11.6857 20.075 11.9067C20.075 12.1277 20.1628 12.3396 20.3191 12.4959C20.4754 12.6522 20.6873 12.74 20.9083 12.74H20.9367C22.4567 12.8483 23.5633 13.355 24.3383 14.1867C25.1333 15.0433 25.545 16.1083 25.5133 17.425C25.5083 17.646 25.5912 17.86 25.7439 18.0199C25.8966 18.1797 26.1065 18.2724 26.3275 18.2775C26.5485 18.2826 26.7625 18.1997 26.9224 18.047C27.0823 17.8943 27.1749 17.6844 27.18 17.4633C27.22 15.735 26.6633 14.2433 25.56 13.0533V13.05C24.4317 11.84 22.8833 11.2 21.02 11.075L20.9917 11.0717L20.9083 11.0733Z" fill="#FDFDFD"/>
<path id="Vector_3" d="M20.8767 13.865C20.7651 13.8552 20.6528 13.8679 20.5463 13.9024C20.4398 13.937 20.3414 13.9926 20.2568 14.0661C20.1723 14.1395 20.1035 14.2292 20.0544 14.3298C20.0053 14.4305 19.977 14.5399 19.9712 14.6517C19.9654 14.7635 19.9822 14.8754 20.0205 14.9806C20.0589 15.0857 20.118 15.1821 20.1944 15.2639C20.2709 15.3458 20.363 15.4113 20.4653 15.4568C20.5676 15.5022 20.6781 15.5265 20.79 15.5283C21.4867 15.565 21.9317 15.775 22.2117 16.0567C22.4933 16.34 22.7033 16.795 22.7417 17.5067C22.7438 17.6185 22.7683 17.7288 22.8139 17.8309C22.8595 17.933 22.9252 18.0249 23.0071 18.1012C23.089 18.1774 23.1853 18.2363 23.2905 18.2745C23.3956 18.3126 23.5074 18.3293 23.6191 18.3233C23.7307 18.3174 23.8401 18.289 23.9406 18.2399C24.0411 18.1909 24.1307 18.122 24.204 18.0376C24.2774 17.9531 24.333 17.8548 24.3675 17.7484C24.402 17.642 24.4148 17.5298 24.405 17.4183C24.3517 16.4183 24.0383 15.535 23.3967 14.885C22.7517 14.235 21.8733 13.9183 20.8767 13.865Z" fill="#FDFDFD"/>
<path id="Vector_4" fill-rule="evenodd" clip-rule="evenodd" d="M11.7783 3.97333C17.0818 2.78784 22.5815 2.78784 27.885 3.97333L28.45 4.09833C30.0003 4.44492 31.4242 5.21455 32.5634 6.3217C33.7027 7.42886 34.5126 8.8302 34.9033 10.37C36.2495 15.6748 36.2495 21.2318 34.9033 26.5367C34.5126 28.0765 33.7027 29.4778 32.5634 30.585C31.4242 31.6921 30.0003 32.4617 28.45 32.8083L27.8833 32.9333C24.5617 33.6761 21.1533 33.956 17.755 33.765L13.3333 37.7217C13.1666 37.8709 12.9629 37.9727 12.7435 38.0164C12.524 38.06 12.2969 38.044 12.0857 37.9699C11.8746 37.8958 11.6872 37.7665 11.5431 37.5953C11.3991 37.4241 11.3036 37.2174 11.2667 36.9967L10.535 32.6267C9.13196 32.1901 7.86434 31.401 6.85327 30.3348C5.8422 29.2686 5.12148 27.9609 4.75999 26.5367C3.41374 21.2319 3.41374 15.6748 4.75999 10.37C5.15069 8.8302 5.96065 7.42886 7.09988 6.3217C8.23911 5.21455 9.66299 4.44492 11.2133 4.09833L11.7783 3.97333ZM27.34 6.41167C22.3955 5.30634 17.2679 5.30634 12.3233 6.41167L11.7567 6.53833C10.6579 6.78443 9.64877 7.33026 8.84145 8.11522C8.03413 8.90018 7.46017 9.89354 7.18332 10.985C5.93951 15.8862 5.93951 21.0205 7.18332 25.9217C7.4603 27.0133 8.03451 28.0068 8.84214 28.7918C9.64978 29.5768 10.6592 30.1225 11.7583 30.3683L11.9083 30.4017C12.151 30.4559 12.3719 30.5813 12.5429 30.7618C12.714 30.9424 12.8272 31.1698 12.8683 31.415L13.3583 34.345L16.4783 31.5533C16.6029 31.4415 16.7487 31.3559 16.907 31.3015C17.0653 31.2471 17.233 31.225 17.4 31.2367C20.7318 31.473 24.0802 31.2232 27.34 30.495L27.905 30.3683C29.0041 30.1225 30.0135 29.5768 30.8212 28.7918C31.6288 28.0068 32.203 27.0133 32.48 25.9217C33.7233 21.0217 33.7233 15.8867 32.48 10.985C32.203 9.89333 31.6288 8.89982 30.8212 8.11484C30.0135 7.32986 29.0041 6.78415 27.905 6.53833L27.34 6.41167Z" fill="#FDFDFD"/>
</g>
</svg>
