<svg width="24" height="25" viewBox="0 0 24 25" fill="none" xmlns="http://www.w3.org/2000/svg">
<g id="la:facebook">
<path id="Vector" d="M12 3.5C7.038 3.5 3 7.538 3 12.5C3 17.462 7.038 21.5 12 21.5C16.962 21.5 21 17.462 21 12.5C21 7.538 16.962 3.5 12 3.5ZM12 5C16.1512 5 19.5 8.34875 19.5 12.5C19.5018 14.2955 18.858 16.0317 17.686 17.392C16.514 18.7522 14.892 19.6456 13.116 19.9093V14.687H15.252L15.5873 12.5173H13.116V11.3322C13.116 10.4322 13.4123 9.632 14.2545 9.632H15.6083V7.739C15.3705 7.70675 14.8673 7.637 13.9163 7.637C11.9303 7.637 10.7662 8.6855 10.7662 11.075V12.5173H8.72475V14.687H10.7662V19.8905C9.01481 19.6022 7.42293 18.7006 6.27502 17.3468C5.12711 15.9929 4.49797 14.275 4.5 12.5C4.5 8.34875 7.84875 5 12 5Z" fill="#FDFDFD"/>
</g>
</svg>
