<svg width="24" height="25" viewBox="0 0 24 25" fill="none" xmlns="http://www.w3.org/2000/svg">
<g id="basil:viber-outline">
<path id="Vector" d="M7.96509 6.702C7.77924 6.67495 7.58973 6.71236 7.42809 6.808H7.41409C7.03909 7.028 6.70109 7.305 6.41309 7.631C6.17309 7.908 6.04309 8.188 6.00909 8.458C5.98909 8.618 6.00309 8.78 6.05009 8.933L6.06809 8.943C6.33809 9.736 6.69009 10.499 7.12009 11.217C7.67454 12.2255 8.35685 13.1582 9.15009 13.992L9.17409 14.026L9.21209 14.054L9.23509 14.081L9.26309 14.105C10.0998 14.9006 11.0347 15.5862 12.0451 16.145C13.2001 16.774 13.9011 17.071 14.3221 17.195V17.201C14.4451 17.239 14.5571 17.256 14.6701 17.256C15.0286 17.2295 15.368 17.0838 15.6341 16.842C15.9591 16.554 16.2341 16.215 16.4481 15.838V15.831C16.6491 15.451 16.5811 15.093 16.2911 14.85C15.7086 14.341 15.0787 13.889 14.4101 13.5C13.9621 13.257 13.5071 13.404 13.3231 13.65L12.9301 14.146C12.7281 14.392 12.3621 14.358 12.3621 14.358L12.3521 14.364C9.62109 13.667 8.89209 10.902 8.89209 10.902C8.89209 10.902 8.85809 10.526 9.11109 10.334L9.60309 9.938C9.83909 9.746 10.0031 9.292 9.75009 8.844C9.3637 8.17476 8.91253 7.54508 8.40309 6.964C8.29198 6.82725 8.13616 6.73411 7.96309 6.701L7.96509 6.702ZM12.5801 5.5C12.4475 5.5 12.3203 5.55268 12.2265 5.64645C12.1328 5.74021 12.0801 5.86739 12.0801 6C12.0801 6.13261 12.1328 6.25979 12.2265 6.35355C12.3203 6.44732 12.4475 6.5 12.5801 6.5C13.8441 6.5 14.8941 6.913 15.7251 7.705C16.1521 8.138 16.4851 8.651 16.7031 9.213C16.9221 9.776 17.0221 10.377 16.9961 10.979C16.9905 11.1116 17.0379 11.241 17.1277 11.3387C17.2175 11.4364 17.3425 11.4944 17.4751 11.5C17.6077 11.5056 17.7371 11.4582 17.8348 11.3684C17.9325 11.2786 17.9905 11.1536 17.9961 11.021C18.0271 10.2805 17.9042 9.54159 17.6351 8.851C17.3648 8.15714 16.955 7.52612 16.4311 6.997L16.4211 6.987C15.3901 6.002 14.0861 5.5 12.5801 5.5Z" fill="#FDFDFD"/>
<path id="Vector_2" d="M12.5449 7.14407C12.4123 7.14407 12.2851 7.19674 12.1914 7.29051C12.0976 7.38428 12.0449 7.51146 12.0449 7.64407C12.0449 7.77667 12.0976 7.90385 12.1914 7.99762C12.2851 8.09139 12.4123 8.14407 12.5449 8.14407H12.5619C13.4739 8.20907 14.1379 8.51307 14.6029 9.01207C15.0799 9.52607 15.3269 10.1651 15.3079 10.9551C15.3049 11.0877 15.3546 11.2161 15.4462 11.312C15.5378 11.4079 15.6638 11.4635 15.7964 11.4666C15.929 11.4696 16.0574 11.4199 16.1533 11.3283C16.2493 11.2366 16.3049 11.1107 16.3079 10.9781C16.3319 9.94107 15.9979 9.04607 15.3359 8.33207V8.33007C14.6589 7.60407 13.7299 7.22007 12.6119 7.14507L12.5949 7.14307L12.5449 7.14407Z" fill="#FDFDFD"/>
<path id="Vector_3" d="M12.5259 8.81907C12.459 8.81317 12.3915 8.82081 12.3277 8.84154C12.2638 8.86226 12.2047 8.89565 12.154 8.93971C12.1033 8.98377 12.062 9.03759 12.0325 9.09797C12.0031 9.15835 11.9861 9.22404 11.9826 9.29112C11.9791 9.3582 11.9892 9.4253 12.0122 9.48841C12.0352 9.55152 12.0707 9.60935 12.1165 9.65844C12.1624 9.70753 12.2177 9.74688 12.2791 9.77413C12.3405 9.80139 12.4067 9.81599 12.4739 9.81707C12.8919 9.83907 13.1589 9.96507 13.3269 10.1341C13.4959 10.3041 13.6219 10.5771 13.6449 11.0041C13.6461 11.0712 13.6609 11.1373 13.6882 11.1986C13.7156 11.2599 13.755 11.315 13.8041 11.3608C13.8533 11.4065 13.9111 11.4419 13.9742 11.4648C14.0372 11.4877 14.1043 11.4976 14.1713 11.4941C14.2383 11.4905 14.3039 11.4735 14.3642 11.444C14.4245 11.4146 14.4783 11.3733 14.5223 11.3226C14.5663 11.272 14.5997 11.2129 14.6204 11.1491C14.6411 11.0853 14.6487 11.0179 14.6429 10.9511C14.6109 10.3511 14.4229 9.82107 14.0379 9.43107C13.6509 9.04107 13.1239 8.85107 12.5259 8.81907Z" fill="#FDFDFD"/>
<path id="Vector_4" fill-rule="evenodd" clip-rule="evenodd" d="M7.06705 2.88406C10.2491 2.17276 13.549 2.17276 16.7311 2.88406L17.0701 2.95906C18.0003 3.16701 18.8546 3.62879 19.5381 4.29308C20.2217 4.95738 20.7076 5.79818 20.9421 6.72206C21.7498 9.90495 21.7498 13.2392 20.9421 16.4221C20.7076 17.3459 20.2217 18.1867 19.5381 18.851C18.8546 19.5153 18.0003 19.9771 17.0701 20.1851L16.7301 20.2601C14.7371 20.7057 12.692 20.8737 10.6531 20.7591L8.00005 23.1331C7.90003 23.2226 7.77781 23.2837 7.64614 23.3099C7.51447 23.3361 7.37818 23.3264 7.2515 23.282C7.12482 23.2376 7.01239 23.1599 6.92594 23.0572C6.8395 22.9545 6.78221 22.8305 6.76005 22.6981L6.32105 20.0761C5.47924 19.8141 4.71866 19.3407 4.11202 18.7009C3.50538 18.0612 3.07295 17.2766 2.85605 16.4221C2.04831 13.2392 2.04831 9.90494 2.85605 6.72206C3.09047 5.79818 3.57645 4.95738 4.25999 4.29308C4.94353 3.62879 5.79786 3.16701 6.72805 2.95906L7.06705 2.88406ZM16.4041 4.34706C13.4373 3.68386 10.3608 3.68386 7.39405 4.34706L7.05405 4.42306C6.39477 4.57071 5.78932 4.89821 5.30493 5.36919C4.82054 5.84016 4.47616 6.43618 4.31005 7.09106C3.56377 10.0318 3.56377 13.1123 4.31005 16.0531C4.47624 16.7081 4.82077 17.3042 5.30535 17.7752C5.78993 18.2461 6.39559 18.5736 7.05505 18.7211L7.14505 18.7411C7.29065 18.7736 7.42322 18.8489 7.52583 18.9572C7.62843 19.0655 7.6964 19.2019 7.72105 19.3491L8.01505 21.1071L9.88705 19.4321C9.96181 19.365 10.0493 19.3136 10.1443 19.2809C10.2393 19.2483 10.3399 19.2351 10.4401 19.2421C12.4391 19.3839 14.4482 19.234 16.4041 18.7971L16.7431 18.7211C17.4025 18.5736 18.0082 18.2461 18.4928 17.7752C18.9773 17.3042 19.3219 16.7081 19.4881 16.0531C20.2341 13.1131 20.2341 10.0321 19.4881 7.09106C19.3219 6.43606 18.9773 5.83995 18.4928 5.36896C18.0082 4.89798 17.4025 4.57055 16.7431 4.42306L16.4041 4.34706Z" fill="#FDFDFD"/>
</g>
</svg>
