<svg width="24" height="25" viewBox="0 0 24 25" fill="none" xmlns="http://www.w3.org/2000/svg">
<g id="icon/whatsapp">
<path id="vector" d="M12.0377 3.79028C7.09761 3.79028 3.07723 7.66261 3.07548 12.4216C3.07432 13.9434 3.48774 15.4287 4.27161 16.7369L3 21.2096L7.75142 20.0094C9.07309 20.7008 10.5427 21.0614 12.0343 21.0604H12.0377C16.9779 21.0604 20.9983 17.1875 21 12.4285C21.0012 10.1234 20.0698 7.95351 18.3772 6.32248C16.6852 4.69086 14.4352 3.79086 12.0377 3.79028ZM12.0377 19.6024H12.0348C10.6982 19.6024 9.3871 19.2563 8.24323 18.6025L7.97032 18.4469L5.15187 19.1588L5.90439 16.5111L5.72729 16.2399C4.98343 15.1054 4.58745 13.7782 4.58806 12.4216C4.58981 8.46564 7.932 5.24828 12.0406 5.24828C14.0299 5.24886 15.9002 5.99615 17.3071 7.35196C18.714 8.70777 19.488 10.5107 19.4868 12.428C19.4851 16.3839 16.1435 19.6024 12.0372 19.6024H12.0377ZM16.1237 14.2285C15.8996 14.1211 14.7987 13.5991 14.5932 13.5265C14.3882 13.4551 14.239 13.418 14.0897 13.634C13.9411 13.85 13.5114 14.336 13.3814 14.4794C13.2501 14.6234 13.1195 14.6408 12.8954 14.5334C12.6712 14.4254 11.9495 14.1978 11.0948 13.4627C10.4288 12.8913 9.97935 12.1853 9.84871 11.9687C9.71806 11.7533 9.83477 11.6365 9.94684 11.5291C10.0473 11.4333 10.171 11.2777 10.2825 11.1517C10.3939 11.0257 10.4311 10.9357 10.5066 10.7917C10.5809 10.6483 10.5437 10.5217 10.4874 10.4143C10.4311 10.3057 9.984 9.24428 9.79645 8.81286C9.61529 8.39248 9.43064 8.4488 9.29303 8.44183C9.16239 8.43603 9.01374 8.43428 8.86335 8.43428C8.71529 8.43428 8.472 8.48828 8.26645 8.70428C8.06148 8.92028 7.48258 9.4417 7.48258 10.5031C7.48258 11.5651 8.28503 12.5905 8.3971 12.7345C8.50916 12.878 9.97645 15.0571 12.223 15.992C12.7572 16.2132 13.1741 16.3462 13.4998 16.446C14.0363 16.6103 14.5246 16.5865 14.9102 16.5314C15.3399 16.4693 16.2352 16.01 16.421 15.5065C16.608 15.0031 16.608 14.5711 16.5523 14.4811C16.4977 14.3911 16.3479 14.3371 16.1237 14.2285Z" fill="#FDFDFD"/>
</g>
</svg>
