<svg width="24" height="25" viewBox="0 0 24 25" fill="none" xmlns="http://www.w3.org/2000/svg">
<g id="mdi:instagram">
<path id="Vector" d="M8.22 3.5H15.78C18.66 3.5 21 5.84 21 8.72V16.28C21 17.6644 20.45 18.9922 19.4711 19.9711C18.4922 20.95 17.1644 21.5 15.78 21.5H8.22C5.34 21.5 3 19.16 3 16.28V8.72C3 7.33557 3.54996 6.00784 4.5289 5.0289C5.50784 4.04996 6.83557 3.5 8.22 3.5ZM8.04 5.3C7.1807 5.3 6.35659 5.64136 5.74897 6.24897C5.14136 6.85659 4.8 7.6807 4.8 8.54V16.46C4.8 18.251 6.249 19.7 8.04 19.7H15.96C16.8193 19.7 17.6434 19.3586 18.251 18.751C18.8586 18.1434 19.2 17.3193 19.2 16.46V8.54C19.2 6.749 17.751 5.3 15.96 5.3H8.04ZM16.725 6.65C17.0234 6.65 17.3095 6.76853 17.5205 6.9795C17.7315 7.19048 17.85 7.47663 17.85 7.775C17.85 8.07337 17.7315 8.35952 17.5205 8.5705C17.3095 8.78147 17.0234 8.9 16.725 8.9C16.4266 8.9 16.1405 8.78147 15.9295 8.5705C15.7185 8.35952 15.6 8.07337 15.6 7.775C15.6 7.47663 15.7185 7.19048 15.9295 6.9795C16.1405 6.76853 16.4266 6.65 16.725 6.65ZM12 8C13.1935 8 14.3381 8.47411 15.182 9.31802C16.0259 10.1619 16.5 11.3065 16.5 12.5C16.5 13.6935 16.0259 14.8381 15.182 15.682C14.3381 16.5259 13.1935 17 12 17C10.8065 17 9.66193 16.5259 8.81802 15.682C7.97411 14.8381 7.5 13.6935 7.5 12.5C7.5 11.3065 7.97411 10.1619 8.81802 9.31802C9.66193 8.47411 10.8065 8 12 8ZM12 9.8C11.2839 9.8 10.5972 10.0845 10.0908 10.5908C9.58446 11.0972 9.3 11.7839 9.3 12.5C9.3 13.2161 9.58446 13.9028 10.0908 14.4092C10.5972 14.9155 11.2839 15.2 12 15.2C12.7161 15.2 13.4028 14.9155 13.9092 14.4092C14.4155 13.9028 14.7 13.2161 14.7 12.5C14.7 11.7839 14.4155 11.0972 13.9092 10.5908C13.4028 10.0845 12.7161 9.8 12 9.8Z" fill="#FDFDFD"/>
</g>
</svg>
