<svg width="157" height="45" viewBox="0 0 157 45" fill="none" xmlns="http://www.w3.org/2000/svg">
<rect width="157" height="45" fill="#D2D0D0"/>
<g id="Landing-page-IT-Mod" clip-path="url(#clip0_0_1)">
<g id="Frame 183">
<rect width="1440" height="78" transform="translate(-130 -16)" fill="#F5F5F5"/>
<g id="logo">
<g id="Group 1">
<g id="Vector 7">
<path d="M0 35.9714V9.20951L4.77344 13.7301V35.9714H0Z" fill="#125AA2"/>
<path d="M10.6484 13.7301L6.13555 9.02869H28.8242V13.7301H19.6445V35.9714H14.6875V13.7301H10.6484Z" fill="#125AA2"/>
</g>
<path id="Vector 8" d="M26.0703 24.2725V20.0184H42.043V24.2725H26.0703Z" fill="#1158A2"/>
<path id="Vector 9" d="M44.7969 9.02869V35.9714H48.6523V17.5369L53.4258 35.9714H55.8125L60.4023 17.5369V35.9714H64.4414V9.02869H58.75L54.5273 25.5133L50.4883 9.02869H44.7969Z" fill="#48A852"/>
<path id="Subtract" fill-rule="evenodd" clip-rule="evenodd" d="M67.1953 11.5433L70.5 9.02869H76.0078L78.9453 11.5433V33.4898L76.0078 35.9714H70.3164L67.1953 33.4898V11.5433ZM71.2344 13.2829H75.2734V31.8946H71.2344V13.2829Z" fill="#48A852"/>
<path id="Subtract_2" fill-rule="evenodd" clip-rule="evenodd" d="M89.5938 9.02869H94V35.9714H84.6367L81.8828 33.4898V21.791L84.6367 19.4867H89.5938V9.02869ZM89.5938 22.8546H85.5547V32.0718H89.5938V22.8546Z" fill="#48A852"/>
</g>
</g>
</g>
</g>
<defs>
<clipPath id="clip0_0_1">
<rect width="1440" height="4519" fill="white" transform="translate(-130 -16)"/>
</clipPath>
</defs>
</svg>
